<?xml version="1.0" standalone="no"?>
<!DOCTYPE svg PUBLIC "-//W3C//DTD SVG 20010904//EN"
 "http://www.w3.org/TR/2001/REC-SVG-20010904/DTD/svg10.dtd">
<svg version="1.0" xmlns="http://www.w3.org/2000/svg"
 width="205.000000pt" height="211.000000pt" viewBox="0 0 205.000000 211.000000"
 preserveAspectRatio="xMidYMid meet">

<g transform="translate(0.000000,211.000000) scale(0.100000,-0.100000)"
fill="#000000" stroke="none">
<path d="M917 2008 c-54 -14 -63 -39 -43 -118 21 -81 12 -95 -46 -74 -48 17
-193 41 -305 50 -65 5 -83 4 -83 -6 0 -23 83 -94 145 -125 33 -17 60 -34 59
-40 0 -5 -20 -20 -42 -33 -59 -33 -197 -166 -241 -231 -96 -145 -131 -264
-131 -451 0 -163 19 -250 85 -385 76 -155 185 -265 340 -340 111 -54 189 -74
313 -82 228 -13 423 50 592 192 85 72 85 76 2 157 -38 37 -74 68 -79 68 -6 0
-43 -25 -84 -55 -41 -30 -108 -69 -149 -87 -68 -30 -86 -33 -192 -36 -106 -3
-126 -1 -197 23 -168 56 -299 200 -346 382 -10 37 -15 105 -15 190 l0 132 -55
36 c-30 19 -55 39 -55 43 0 13 27 34 99 77 35 21 73 50 85 64 83 102 160 138
270 128 108 -11 136 -24 201 -91 33 -34 78 -91 99 -127 113 -186 316 -369 475
-430 56 -21 162 -31 177 -16 11 10 -22 306 -48 432 -36 181 -104 304 -213 386
-31 23 -58 39 -61 37 -3 -3 8 -32 25 -64 33 -66 78 -231 109 -404 35 -193 36
-200 18 -200 -17 0 -51 68 -81 160 -10 30 -35 100 -57 154 -89 225 -176 339
-303 400 -30 14 -55 32 -55 41 0 8 14 22 32 31 37 19 148 122 148 137 0 26
-176 -34 -252 -85 -51 -35 -71 -20 -57 42 13 55 10 97 -7 114 -17 18 -23 18
-77 4z"/>
<path d="M740 1337 c-14 -7 -31 -24 -39 -39 -14 -25 -14 -29 5 -55 40 -54 114
-34 114 31 0 54 -38 84 -80 63z"/>
<path d="M995 1097 c-25 -39 -40 -167 -26 -230 23 -104 113 -176 229 -184 73
-5 199 17 232 40 19 13 19 15 3 33 -10 10 -49 46 -88 79 -38 33 -126 111 -194
173 -69 61 -129 112 -133 112 -4 0 -14 -10 -23 -23z"/>
</g>
</svg>
